#define iconify_width  10
#define iconify_height 10
static unsigned char iconify_bits[] = {
 0x00,0xfc,0x00,0xfc,0x00,0xfc,0xfe,0xfd,0xff,0xff,0xff,0xff,
 0xfe,0xfd,0x00,0xfc,0x00,0xfc,0x00,0xfc};
